<svg preserveAspectRatio="none" width="100%" height="100%" overflow="visible" style="display: block;" viewBox="0 0 17.8415 17.0703" fill="none" xmlns="http://www.w3.org/2000/svg">
<path id="Vector (Stroke)" fill-rule="evenodd" clip-rule="evenodd" d="M6.17407 2.25231C6.50602 1.13745 7.47959 0 8.92165 0C10.3641 0 11.3367 1.1375 11.6712 2.25025C11.6728 2.25233 11.6751 2.25494 11.678 2.25795C11.6848 2.2651 11.6926 2.27168 11.6999 2.27678C11.7055 2.28066 11.7089 2.28233 11.7093 2.28253C12.5487 2.62815 13.5368 3.18023 14.3096 4.19102C15.0886 5.20994 15.5953 6.6244 15.5953 8.59778C15.5953 10.5653 15.8029 11.6443 16.1086 12.385C16.3766 13.0344 16.729 13.4613 17.2306 14.0687C17.3038 14.1575 17.3802 14.25 17.4601 14.3477L17.4603 14.348C18.3846 15.4802 17.5118 17.0703 16.0879 17.0703H1.76C0.338796 17.0703 -0.548738 15.4882 0.383235 14.3477C0.463104 14.25 0.539587 14.1573 0.612888 14.0685C1.11434 13.4612 1.46683 13.0342 1.73509 12.3848C2.04106 11.644 2.24914 10.5651 2.25031 8.59778M6.17407 2.25231C6.17279 2.25382 6.17118 2.25562 6.16923 2.25765C6.16291 2.2642 6.15544 2.27052 6.14799 2.27566C6.14107 2.28042 6.13692 2.28228 6.13692 2.28229L6.13647 2.28247C5.29667 2.6283 4.30827 3.17934 3.53543 4.18989C2.75648 5.20842 2.25038 6.62267 2.25031 8.59735M8.92165 1.48438C8.35023 1.48438 7.80451 1.96088 7.59332 2.68745L7.59278 2.6893C7.45661 3.15329 7.07957 3.49959 6.70169 3.65503C6.70163 3.65505 6.70158 3.65507 6.70152 3.6551C5.99253 3.94708 5.2677 4.3683 4.71451 5.09163C4.16743 5.80697 3.73468 6.88819 3.73468 8.59778V8.59821C3.7335 10.6501 3.51993 11.9518 3.10704 12.9514C2.74784 13.8211 2.24642 14.4254 1.74891 15.025C1.67661 15.1121 1.6044 15.1992 1.53271 15.2869L1.53267 15.287C1.50313 15.3231 1.49486 15.3527 1.49284 15.3751C1.49055 15.4003 1.49531 15.4306 1.5112 15.4617C1.53878 15.5157 1.60746 15.5859 1.76 15.5859H16.0879C16.2349 15.5859 16.3025 15.5181 16.3306 15.4626C16.3608 15.4031 16.357 15.344 16.3106 15.2869C16.2389 15.1992 16.1668 15.1122 16.0945 15.0251C15.5969 14.4255 15.0954 13.8211 14.7365 12.9512C14.3238 11.9515 14.1109 10.6496 14.1109 8.59778C14.1109 6.89037 13.6779 5.80876 13.1303 5.09258C12.5766 4.36836 11.8515 3.94632 11.144 3.65505C10.7619 3.49789 10.3888 3.14673 10.2535 2.69048L10.2529 2.6886C10.039 1.96052 9.49308 1.48438 8.92165 1.48438Z" fill="var(--fill-0, white)" fill-opacity="0.87"/>
</svg>
